<?xml version="1.0" standalone="no"?>
<!DOCTYPE svg PUBLIC "-//W3C//DTD SVG 20010904//EN"
 "http://www.w3.org/TR/2001/REC-SVG-20010904/DTD/svg10.dtd">
<svg version="1.0" xmlns="http://www.w3.org/2000/svg"
 width="512.000000pt" height="512.000000pt" viewBox="0 0 512.000000 512.000000"
 preserveAspectRatio="xMidYMid meet">
<metadata>
Created by potrace 1.16, written by Peter Selinger 2001-2019
</metadata>
<g transform="translate(0.000000,512.000000) scale(0.100000,-0.100000)"
fill="#000000" stroke="none">
<path d="M2605 4804 c-74 -18 -131 -51 -178 -103 -42 -47 -47 -49 -47 -20 0
12 23 43 55 75 31 30 53 54 50 54 -23 0 -91 -48 -131 -93 -45 -50 -53 -55
-101 -59 -34 -3 -70 -15 -100 -34 -42 -26 -54 -42 -98 -129 -41 -82 -56 -103
-85 -117 -19 -10 -27 -18 -18 -18 26 0 28 -12 13 -66 l-14 -49 29 34 29 34 -6
-54 c-4 -40 2 -80 21 -154 15 -55 31 -139 38 -186 11 -83 11 -86 -13 -118 -21
-29 -24 -43 -24 -119 0 -78 3 -93 30 -141 47 -86 95 -134 132 -133 29 1 31 -2
38 -46 7 -47 7 -47 -42 -92 -36 -33 -64 -49 -104 -59 -92 -23 -418 -131 -524
-173 -121 -48 -215 -98 -273 -145 -36 -29 -56 -62 -112 -177 -37 -77 -91 -204
-120 -281 -31 -81 -65 -154 -81 -173 -31 -36 -31 -33 -53 -179 -9 -56 -38
-182 -65 -280 -27 -98 -63 -241 -81 -318 -17 -77 -43 -187 -56 -244 -13 -57
-23 -105 -21 -107 2 -2 24 61 50 139 74 223 151 539 182 748 17 115 23 132 64
183 20 25 42 76 62 140 53 170 190 493 217 510 14 9 139 -147 167 -209 56
-124 100 -302 115 -470 l9 -100 -4 107 c-7 160 -59 378 -120 498 -13 25 -52
79 -88 120 l-65 76 31 21 c78 52 272 126 567 218 102 32 191 60 197 63 7 2 0
-24 -17 -59 -16 -35 -36 -95 -44 -134 -21 -103 -69 -483 -62 -500 3 -8 39 -31
81 -52 l75 -38 -65 -44 c-92 -63 -105 -77 -105 -116 0 -36 63 -241 153 -497
l55 -158 -96 0 c-110 0 -150 -16 -170 -66 -6 -16 -23 -132 -37 -259 -38 -344
-32 -317 -68 -313 -29 3 -33 10 -89 143 -103 249 -101 235 -93 430 5 134 3
189 -9 259 -9 49 -17 134 -18 190 -2 85 -3 76 -8 -57 l-5 -159 -44 63 c-49 69
-256 287 -336 352 -42 35 -37 27 36 -53 47 -52 112 -127 146 -167 226 -265
246 -407 99 -701 -24 -48 -49 -104 -55 -124 l-12 -36 -77 35 c-89 41 -207 73
-266 73 -61 0 -145 -26 -190 -57 -57 -40 -86 -101 -85 -177 l1 -61 9 49 c16
96 101 192 192 217 93 25 254 -16 342 -87 31 -25 55 -48 52 -50 -2 -2 -54 8
-117 22 -125 28 -169 26 -222 -9 -37 -26 -59 -61 -93 -149 l-25 -63 42 50 c23
28 64 71 91 97 47 46 52 48 107 48 56 0 170 -17 409 -62 111 -20 113 -21 79
-33 -118 -40 -198 -141 -198 -249 0 -71 12 -102 61 -152 l41 -42 -99 -4 c-213
-10 -427 25 -546 90 -59 32 -107 88 -144 168 -34 75 -44 207 -20 278 25 72 93
164 204 275 99 98 118 131 78 131 -47 0 -153 -89 -215 -180 -20 -30 -57 -93
-81 -140 -42 -82 -43 -88 -44 -180 0 -112 25 -205 79 -290 l35 -55 -242 -7
c-347 -10 -352 -14 -20 -16 185 -1 294 -6 298 -12 28 -45 238 -88 473 -97 118
-5 152 -9 152 -20 0 -7 4 -13 10 -13 5 0 64 -31 131 -70 68 -38 128 -70 135
-70 6 0 17 -7 24 -15 32 -38 -57 2 -201 91 -87 54 -114 65 -107 42 5 -15 115
-84 212 -134 l68 -35 1126 1 c1006 1 1129 2 1159 17 39 18 51 52 35 97 -7 19
-8 43 -4 61 8 29 11 30 98 42 199 26 273 44 322 76 109 74 150 272 89 437 -29
79 -58 120 -170 248 l-100 113 22 82 c29 110 28 140 -5 166 -25 20 -39 21
-270 21 -134 0 -244 4 -244 8 0 17 48 149 70 192 13 25 52 89 87 144 35 54 62
100 60 102 -2 2 -57 -37 -122 -86 -65 -50 -122 -90 -127 -90 -11 0 -10 30 3
207 16 218 7 254 -14 58 -25 -235 -56 -461 -67 -491 -13 -34 -14 -32 23 -37
17 -2 -82 -5 -221 -5 l-253 -2 6 78 c9 105 40 329 70 492 37 206 39 228 25
245 -6 8 -42 31 -78 51 l-66 37 47 40 c37 30 47 46 47 69 0 63 -107 402 -149
474 -11 19 -19 34 -17 34 22 0 157 -67 187 -94 23 -19 91 -60 152 -90 62 -31
149 -76 195 -100 45 -25 82 -44 82 -42 0 9 -100 67 -236 138 -83 43 -160 88
-170 99 l-19 21 35 -14 c19 -9 64 -28 100 -43 152 -63 387 -185 415 -215 l30
-31 3 -172 c4 -182 -10 -301 -48 -427 -25 -81 -19 -89 10 -13 29 77 48 170 56
271 6 68 9 81 20 70 16 -17 127 -229 150 -288 10 -25 24 -49 31 -55 13 -10
236 -481 317 -670 65 -153 65 -151 65 -138 1 18 -46 130 -214 508 -227 511
-295 651 -341 705 -7 8 -17 59 -22 113 -7 71 -15 106 -29 125 -54 73 -321 216
-618 332 -88 34 -163 65 -167 69 -18 17 71 271 108 309 13 13 28 40 35 60 6
21 18 46 25 57 20 28 17 76 -7 139 l-20 55 37 58 c53 82 75 140 77 199 2 51 4
53 52 86 32 21 62 53 82 88 39 65 40 72 9 60 -28 -10 -40 -2 -25 17 9 10 5 13
-22 13 -19 1 -44 9 -57 20 -22 18 -23 20 -6 51 9 18 18 60 21 93 4 56 3 59
-11 41 -35 -46 -50 -55 -90 -55 -23 0 -48 5 -56 11 -12 8 -9 9 12 5 56 -12
140 48 137 98 -1 16 -2 17 -6 4 -6 -23 -66 -41 -111 -33 -20 4 -61 25 -91 47
-51 39 -53 42 -35 56 17 13 17 14 1 8 -13 -4 -36 8 -75 41 -137 111 -309 155
-467 117z m-34 -84 c-30 -17 -64 -38 -75 -48 -14 -11 -13 -8 4 12 14 16 43 37
65 47 62 29 66 22 6 -11z m186 -26 c-3 -3 -12 -4 -19 -1 -8 3 -5 6 6 6 11 1
17 -2 13 -5z m-96 -37 c-95 -47 -188 -139 -212 -207 l-20 -55 4 53 c3 39 12
64 34 95 37 52 122 113 183 132 75 23 79 16 11 -18z m310 -46 c17 -6 -1 -7
-56 -4 -44 3 -100 0 -125 -5 -61 -15 -63 -7 -4 12 51 16 139 15 185 -3z m-671
-36 c17 -9 30 -17 30 -18 0 -1 -24 0 -54 1 -39 3 -67 -2 -101 -17 -54 -24 -57
-8 -5 27 38 26 89 28 130 7z m810 -81 c25 -14 34 -22 20 -18 -57 15 -199 16
-249 1 -59 -17 -57 -3 3 24 63 28 168 25 226 -7z m-423 -47 c-57 -53 -77 -99
-77 -179 -1 -68 -13 -64 -25 8 -11 69 33 148 110 195 44 28 43 24 -8 -24z
m-355 -154 c24 -25 75 -60 113 -78 60 -30 66 -35 40 -35 -100 0 -236 132 -235
227 1 24 4 20 20 -21 11 -27 39 -69 62 -93z m836 112 c56 -17 145 -19 173 -4
18 9 19 9 10 -9 -21 -40 -72 -46 -177 -22 -196 46 -339 -4 -408 -142 -21 -41
-26 -47 -26 -27 0 14 11 48 25 76 64 128 228 180 403 128z m-1017 -128 c11
-43 59 -101 100 -123 15 -7 47 -14 71 -15 l43 -1 -33 -11 c-95 -30 -204 67
-201 180 1 26 3 39 6 28 2 -11 9 -37 14 -58z m965 62 c53 -10 179 -57 171 -65
-1 -2 -31 6 -66 16 -93 29 -193 27 -259 -6 -51 -25 -104 -79 -135 -139 -23
-42 -20 -9 3 42 28 62 99 129 157 147 60 18 57 18 129 5z m-591 -59 c21 -22
37 -40 34 -40 -3 0 -23 18 -44 40 -21 22 -37 40 -34 40 3 0 23 -18 44 -40z
m811 -55 c43 -8 87 -12 97 -9 16 5 17 3 8 -15 -21 -38 -79 -73 -129 -78 l-47
-4 48 20 c27 11 55 25 64 33 14 11 13 13 -8 19 -45 13 -200 9 -275 -7 -42 -8
-78 -13 -80 -11 -12 12 164 64 223 66 12 1 56 -6 99 -14z m-651 -121 c133 -56
126 -55 206 -27 84 29 158 28 224 -2 22 -11 45 -21 50 -23 6 -3 -3 9 -19 27
-17 17 -25 31 -20 31 21 0 53 -47 64 -93 7 -34 7 -73 0 -130 -5 -45 -10 -106
-10 -136 l0 -54 -38 43 -38 43 -79 -31 c-44 -16 -99 -35 -122 -41 -36 -10 -43
-16 -43 -36 0 -24 -3 -25 -60 -25 -33 0 -60 3 -60 8 1 4 7 18 15 32 8 14 14
36 13 50 l-1 25 -4 -25 c-7 -39 -22 -51 -44 -39 -11 5 -71 28 -134 50 -128 44
-133 43 -204 -17 l-32 -26 -34 23 c-50 34 -46 60 16 120 l52 50 -6 57 c-3 31
-9 74 -13 95 -6 34 -5 37 17 37 13 1 47 9 74 20 73 27 157 25 230 -6z m-359
-121 c6 -38 3 -44 -36 -87 -24 -26 -45 -45 -47 -42 -2 2 10 25 26 52 24 37 31
60 31 98 1 58 15 46 26 -21z m964 -60 c-11 -17 -11 -17 -6 0 3 10 7 26 7 35 1
15 2 15 6 0 2 -10 -1 -25 -7 -35z m-971 -49 c-34 -36 -45 -29 -12 9 15 18 30
29 32 24 2 -4 -7 -19 -20 -33z m-183 -70 c33 -22 54 -64 54 -110 0 -20 7 -81
16 -136 17 -108 11 -132 -30 -126 -29 4 -122 145 -131 198 -9 55 1 118 25 158
22 37 31 39 66 16z m1094 -133 c0 -35 -18 -14 -26 29 -5 33 -5 34 10 16 9 -11
16 -31 16 -45z m-913 -13 c41 -41 63 -70 63 -86 0 -12 6 -38 14 -57 18 -42 58
-55 169 -55 88 0 114 12 149 68 l22 36 7 -28 c5 -16 9 -66 11 -111 2 -46 6
-81 11 -78 11 6 9 97 -4 170 -12 68 -4 93 30 93 36 0 43 -17 56 -136 7 -66 16
-135 20 -155 14 -74 -44 -110 -109 -69 -23 13 -43 19 -59 15 -19 -5 -25 -2
-30 15 -3 12 -2 33 3 46 11 28 3 31 -16 7 -32 -42 -5 -96 44 -87 16 3 35 -1
46 -9 19 -14 19 -15 -4 -52 -19 -31 -20 -39 -9 -46 10 -7 7 -9 -11 -7 -35 3
-149 -12 -155 -22 -3 -4 72 -8 166 -9 93 -1 176 -4 184 -8 8 -3 15 -1 15 5 0
14 -98 53 -105 41 -4 -5 -14 -9 -23 -8 -11 0 -12 3 -4 6 6 2 12 20 12 39 0 27
5 36 23 43 25 10 51 37 61 66 6 18 9 17 32 -10 24 -28 23 -26 -5 30 -29 56
-51 141 -51 189 1 20 1 20 11 3 19 -32 73 -47 169 -47 49 0 90 -3 90 -6 0 -4
-13 -30 -29 -58 -16 -28 -41 -96 -56 -151 -59 -218 -123 -338 -202 -376 -65
-31 -177 -23 -270 20 -96 45 -206 160 -262 272 -37 74 -43 98 -56 204 -8 66
-19 141 -24 165 -17 73 -12 200 7 200 4 0 35 -28 69 -62z m188 47 l40 -13 -47
-1 c-26 -1 -58 -5 -71 -10 -18 -7 -30 -6 -43 4 -17 12 -16 14 16 23 46 13 57
13 105 -3z m652 -21 l28 -25 -55 5 c-30 3 -71 6 -90 6 l-35 1 35 19 c48 27 84
25 117 -6z m-452 -46 c16 -16 -8 -83 -41 -116 l-34 -34 -91 4 c-107 4 -122 15
-117 88 4 63 24 72 165 68 61 -2 115 -6 118 -10z m421 -14 c25 -3 30 -9 28
-27 -1 -12 -3 -43 -3 -69 l-1 -48 -105 0 c-119 0 -134 8 -156 79 -14 48 -8 68
23 73 26 5 167 -1 214 -8z m69 -73 c-8 -42 -25 -66 -25 -34 0 39 12 83 22 77
6 -4 7 -22 3 -43z m-966 -399 c-24 -162 -9 -401 41 -628 36 -166 110 -764 110
-889 l0 -45 228 -3 c182 -2 159 -3 -113 -5 -187 -1 -335 2 -328 6 9 6 -11 73
-73 252 -127 365 -139 407 -124 425 7 9 48 41 92 71 43 31 78 59 78 63 0 5
-36 25 -80 45 -45 20 -84 44 -87 53 -9 23 44 388 73 502 28 113 57 164 126
225 66 61 75 50 57 -72z m156 -188 c31 -52 60 -93 65 -91 5 1 40 -31 78 -72
48 -51 68 -79 65 -92 -3 -10 5 -34 17 -54 23 -37 40 -42 21 -7 -32 61 20 142
91 142 22 0 38 -5 38 -11 0 -6 -14 -37 -32 -68 l-31 -56 31 29 c17 16 39 49
49 72 14 34 23 44 41 44 34 0 75 24 111 65 l31 36 1 -63 c2 -118 0 -126 -63
-194 -94 -101 -296 -121 -451 -43 -69 35 -143 95 -159 131 -23 48 -31 162 -23
315 l7 134 29 -62 c16 -34 54 -104 84 -155z m738 74 c34 -70 73 -192 116 -365
12 -45 21 -86 21 -92 0 -6 -25 -27 -55 -48 -31 -20 -54 -41 -52 -47 2 -6 26
-25 53 -43 27 -17 60 -40 73 -50 l25 -20 -37 -220 c-28 -163 -77 -530 -77
-570 0 -2 -31 -3 -69 -3 l-69 0 -6 63 c-6 66 -33 855 -39 1120 -4 153 -3 162
25 244 43 129 43 129 91 31z m-640 -733 c24 -38 72 -122 107 -185 68 -124 105
-180 121 -180 11 0 47 36 67 66 7 10 3 1 -7 -22 -37 -77 -69 -83 -112 -19 -15
23 -60 101 -100 175 -40 74 -94 171 -121 215 -26 44 -37 67 -23 50 14 -16 45
-61 68 -100z m117 2 c156 -113 208 -130 258 -84 l25 22 -17 -26 c-21 -34 -65
-52 -101 -43 -27 7 -181 119 -255 185 -47 42 -24 29 90 -54z m1260 -451 c0 -2
-8 -10 -17 -17 -16 -13 -17 -12 -4 4 13 16 21 21 21 13z m-56 -76 c-15 -22
-29 -40 -31 -40 -5 0 3 15 29 53 30 43 31 32 2 -13z m444 -272 c20 -20 14 -62
-32 -226 -114 -403 -175 -641 -220 -867 -19 -93 -29 -123 -46 -137 -21 -17
-78 -18 -1089 -16 l-1066 3 -3 33 c-4 42 58 608 124 1136 4 27 14 56 25 67 18
18 54 19 1157 19 872 0 1141 -3 1150 -12z m-2675 -261 c31 -103 76 -208 112
-259 19 -26 32 -48 27 -48 -15 1 -154 39 -160 44 -3 4 -18 53 -33 110 l-27
104 27 55 c14 31 28 56 31 56 3 1 13 -27 23 -62z m2788 -85 c59 -62 96 -111
124 -167 40 -78 40 -79 40 -194 0 -105 -3 -122 -26 -172 -40 -86 -111 -118
-317 -145 l-52 -7 21 48 c23 53 22 101 -7 187 -15 45 -14 51 11 144 14 54 27
99 29 101 2 2 30 -3 62 -11 108 -26 128 -28 114 -11 -14 17 -112 65 -134 65
-8 0 -17 4 -20 8 -9 14 14 82 27 82 50 -1 147 -81 192 -158 25 -42 39 -41 32
4 -13 80 -102 165 -189 179 -37 7 -39 9 -33 34 18 77 27 101 34 101 5 0 46
-40 92 -88z m-2869 -132 c4 -33 -15 -35 -48 -6 l-29 24 18 36 c9 20 17 47 18
59 1 22 34 -70 41 -113z m271 -126 c32 -6 37 -10 37 -33 0 -21 -11 -34 -52
-61 -69 -47 -110 -106 -116 -169 -6 -63 2 -92 34 -130 l26 -31 -60 0 c-56 0
-62 2 -90 35 -30 34 -52 89 -52 131 0 84 78 201 162 243 47 23 54 24 111 15z
m13 -236 c-13 -140 -17 -158 -36 -158 -10 0 -28 12 -39 26 -36 46 -24 114 32
172 17 17 35 32 40 32 6 0 7 -30 3 -72z m2340 -54 c-5 -39 -44 -129 -52 -121
-2 1 7 39 19 85 24 89 44 110 33 36z m-2363 -180 c3 -3 3 -12 0 -20 -4 -10
-26 -14 -89 -14 -46 0 -84 -4 -84 -8 0 -4 36 -30 80 -56 44 -27 80 -51 80 -53
0 -3 -46 20 -102 50 -144 77 -168 91 -168 100 0 8 274 10 283 1z m-3 -70 c0
-2 -9 0 -20 6 -11 6 -20 13 -20 16 0 2 9 0 20 -6 11 -6 20 -13 20 -16z"/>
<path d="M2080 3774 c0 -9 11 -25 25 -36 30 -23 31 -39 6 -62 -22 -20 -34 -60
-26 -86 7 -22 73 -66 83 -55 4 4 -5 16 -21 27 -15 11 -27 29 -27 41 0 21 0 21
16 -2 l17 -23 13 37 c12 35 11 42 -11 84 -21 42 -59 91 -70 91 -3 0 -5 -7 -5
-16z"/>
<path d="M2072 3723 c-18 -32 -15 -51 4 -25 8 12 14 28 11 35 -2 7 -8 3 -15
-10z"/>
<path d="M2590 3267 c-14 -12 -36 -35 -50 -52 -13 -16 -1 -8 28 20 47 44 57
56 50 55 -2 -1 -14 -11 -28 -23z"/>
<path d="M2416 3190 c31 -104 47 -140 38 -90 -10 60 -33 134 -48 155 -10 13
-7 -8 10 -65z"/>
<path d="M2745 3051 c-77 -5 -87 -8 -69 -18 43 -25 99 -26 148 -5 48 22 59 33
29 30 -10 -1 -58 -4 -108 -7z"/>
<path d="M2718 2974 c-16 -8 -28 -16 -28 -17 0 -1 28 -2 62 -2 35 0 72 -4 83
-8 15 -7 13 -2 -8 17 -32 29 -68 33 -109 10z"/>
<path d="M2535 3613 c-66 -8 -78 -13 -65 -28 19 -22 75 -29 126 -14 45 14 45
14 24 31 -22 18 -27 18 -85 11z"/>
<path d="M2937 3599 c-18 -10 -18 -11 0 -25 27 -20 143 -15 143 6 0 24 -110
38 -143 19z"/>
<path d="M2978 3533 c6 -2 18 -2 25 0 6 3 1 5 -13 5 -14 0 -19 -2 -12 -5z"/>
<path d="M2450 2773 c0 -19 40 -122 50 -128 5 -3 1 19 -10 49 -21 61 -39 98
-40 79z"/>
<path d="M2120 1468 c103 -10 2090 -6 2083 5 -2 4 -491 6 -1086 6 -675 -1
-1050 -5 -997 -11z"/>
<path d="M1930 3077 c-14 -12 -39 -32 -55 -45 -17 -13 -21 -19 -10 -13 21 10
104 80 95 80 -3 0 -16 -10 -30 -22z"/>
<path d="M1560 2738 c0 -13 9 -52 21 -88 33 -105 80 -298 99 -405 l18 -100 1
88 c2 199 -34 369 -100 476 -17 28 -33 51 -35 51 -2 0 -4 -10 -4 -22z"/>
<path d="M3792 2670 c0 -14 2 -19 5 -12 2 6 2 18 0 25 -3 6 -5 1 -5 -13z"/>
<path d="M1290 2626 c0 -57 95 -321 170 -471 l50 -100 -6 70 c-8 103 -32 229
-53 291 -41 115 -161 272 -161 210z"/>
<path d="M3782 2570 c0 -19 2 -27 5 -17 2 9 2 25 0 35 -3 9 -5 1 -5 -18z"/>
<path d="M3712 2578 c-5 -7 -22 -38 -38 -68 -26 -50 -29 -64 -28 -160 0 -82 5
-121 23 -177 13 -40 27 -73 31 -73 4 0 10 30 13 68 10 104 21 422 15 422 -3 0
-10 -6 -16 -12z"/>
<path d="M3772 2470 c0 -19 2 -27 5 -17 2 9 2 25 0 35 -3 9 -5 1 -5 -18z"/>
<path d="M3763 2360 c0 -25 2 -35 4 -22 2 12 2 32 0 45 -2 12 -4 2 -4 -23z"/>
<path d="M1331 2156 c68 -85 186 -211 173 -186 -15 30 -123 156 -180 210 l-57
55 64 -79z"/>
<path d="M1094 2095 c28 -43 127 -165 227 -277 48 -53 104 -117 125 -142 21
-25 40 -44 42 -42 7 8 -48 102 -87 149 -66 80 -327 345 -307 312z"/>
<path d="M4093 2005 c0 -27 2 -38 4 -22 2 15 2 37 0 50 -2 12 -4 0 -4 -28z"/>
<path d="M3604 1939 c-26 -28 -192 -116 -252 -134 -13 -4 -21 -9 -19 -12 8 -7
190 75 242 109 25 17 50 39 56 49 14 27 7 24 -27 -12z"/>
<path d="M3613 1854 c-30 -23 -119 -67 -277 -138 -32 -14 -57 -29 -54 -31 7
-8 126 31 219 70 45 19 85 32 90 29 5 -3 8 -2 7 3 -2 5 13 23 32 40 46 41 31
65 -17 27z"/>
<path d="M3290 1780 c-8 -5 -10 -10 -5 -10 6 0 17 5 25 10 8 5 11 10 5 10 -5
0 -17 -5 -25 -10z"/>
<path d="M3554 1764 c-18 -14 -18 -15 4 -4 12 6 22 13 22 15 0 8 -5 6 -26 -11z"/>
<path d="M3478 1724 c-27 -13 -48 -27 -48 -29 0 -3 23 6 50 20 28 14 50 28 50
30 0 7 1 7 -52 -21z"/>
<path d="M1165 1575 c-49 -13 -115 -35 -145 -49 -30 -15 -46 -24 -35 -20 68
19 185 44 212 44 24 0 59 -18 129 -66 80 -54 93 -61 76 -37 -32 45 -112 132
-131 142 -10 6 -48 1 -106 -14z"/>
<path d="M4405 1275 c99 -124 107 -132 80 -90 -31 51 -101 138 -135 170 -18
17 7 -19 55 -80z"/>
<path d="M1051 1306 c-46 -19 -91 -42 -100 -52 -15 -16 -15 -16 2 -11 40 14
135 36 182 42 44 6 58 3 120 -28 l70 -36 -35 31 c-39 33 -129 88 -145 88 -5 0
-48 -16 -94 -34z"/>
<path d="M4555 610 c-8 -12 121 -12 150 0 13 6 -7 9 -62 9 -45 1 -85 -3 -88
-9z"/>
<path d="M142 214 c10 -9 1179 -26 1288 -18 l105 8 -65 7 c-78 8 -1336 11
-1328 3z"/>
<path d="M1835 205 c-5 -2 -46 -7 -90 -11 -57 -5 -73 -9 -55 -14 39 -11 2579
7 2620 18 24 7 -375 10 -1215 10 -687 0 -1254 -1 -1260 -3z"/>
<path d="M230 110 c76 -11 1350 -23 1375 -14 19 8 18 9 -5 15 -14 4 -340 7
-725 7 -385 0 -675 -4 -645 -8z"/>
<path d="M4545 111 c-164 -6 -167 -6 -85 -13 111 -10 472 -9 530 1 37 7 28 9
-56 10 -56 0 -128 3 -160 4 -32 2 -135 1 -229 -2z"/>
<path d="M1650 80 c0 -7 448 -9 1328 -8 730 1 1278 5 1217 8 -180 12 -2545 12
-2545 0z"/>
</g>
</svg>